<svg width="30" height="24" viewBox="0 0 30 24" fill="none" xmlns="http://www.w3.org/2000/svg">
<path id="Icon (Stroke)" fill-rule="evenodd" clip-rule="evenodd" d="M8.01163 5.75056e-07H21.9884C23.0617 -1.64321e-05 23.9475 -3.04182e-05 24.6691 0.058926C25.4186 0.12016 26.1075 0.251579 26.7546 0.5813C27.7582 1.09262 28.5741 1.90852 29.0854 2.91205C29.4036 3.53651 29.5371 4.19992 29.6011 4.91908C29.6724 5.13694 29.6849 5.36673 29.6425 5.58613C29.6667 6.18629 29.6667 6.88047 29.6667 7.67824V16.3218C29.6667 17.395 29.6667 18.2809 29.6078 19.0024C29.5465 19.7519 29.4151 20.4408 29.0854 21.088C28.5741 22.0915 27.7582 22.9074 26.7546 23.4187C26.1075 23.7484 25.4186 23.8798 24.6691 23.9411C23.9475 24 23.0617 24 21.9885 24H8.0116C6.93832 24 6.05252 24 5.33093 23.9411C4.58147 23.8798 3.89253 23.7484 3.24542 23.4187C2.24189 22.9074 1.42599 22.0915 0.914665 21.088C0.584944 20.4408 0.453525 19.7519 0.392291 19.0024C0.333335 18.2808 0.333349 17.395 0.333366 16.3217V7.67827C0.333353 6.88049 0.333342 6.1863 0.357549 5.58613C0.315207 5.36673 0.327704 5.13692 0.398987 4.91906C0.462971 4.19991 0.596489 3.53651 0.914665 2.91205C1.42599 1.90852 2.24189 1.09262 3.24542 0.5813C3.89253 0.251579 4.58147 0.12016 5.33093 0.058926C6.05253 -3.04182e-05 6.93834 -1.64321e-05 8.01163 5.75056e-07ZM3.00003 7.89421V16.2667C3.00003 16.7776 3.00024 17.2153 3.00486 17.5968L9.05467 12.1325L3.00003 7.89421ZM11.9313 10.891L3.11039 4.71638C3.15802 4.44016 3.22 4.26142 3.29068 4.12269C3.54634 3.62093 3.95429 3.21298 4.45606 2.95732C4.66459 2.85106 4.96353 2.7645 5.54808 2.71674C6.1482 2.6677 6.92459 2.66667 8.0667 2.66667H21.9334C23.0755 2.66667 23.8519 2.6677 24.452 2.71674C25.0365 2.7645 25.3355 2.85106 25.544 2.95732C26.0458 3.21298 26.4537 3.62093 26.7094 4.12269C26.7801 4.26142 26.842 4.44016 26.8897 4.71638L18.0688 10.891C18.0534 10.9013 18.0381 10.912 18.023 10.923L16.6822 11.8616C15.7103 12.542 15.5044 12.66 15.3225 12.7053C15.1108 12.7581 14.8893 12.7581 14.6775 12.7053C14.4957 12.66 14.2898 12.542 13.3179 11.8616L11.977 10.923C11.9619 10.912 11.9467 10.9013 11.9313 10.891ZM11.296 13.7014L3.7482 20.5188C3.95225 20.7302 4.19107 20.9077 4.45606 21.0427C4.66459 21.1489 4.96353 21.2355 5.54808 21.2833C6.1482 21.3323 6.92459 21.3333 8.0667 21.3333H21.9334C23.0755 21.3333 23.8519 21.3323 24.452 21.2833C25.0365 21.2355 25.3355 21.1489 25.544 21.0427C25.809 20.9077 26.0478 20.7302 26.2519 20.5188L18.704 13.7014L18.2114 14.0462C18.1597 14.0825 18.1084 14.1184 18.0576 14.1541C17.3314 14.664 16.6938 15.1118 15.9675 15.2928C15.3322 15.4512 14.6678 15.4512 14.0326 15.2928C13.3063 15.1118 12.6686 14.664 11.9424 14.1541C11.8916 14.1184 11.8404 14.0825 11.7886 14.0462L11.296 13.7014ZM20.9454 12.1325L26.9952 17.5968C26.9998 17.2153 27 16.7776 27 16.2667V7.89421L20.9454 12.1325Z" fill="black"/>
</svg>
