<svg width="340" height="120" viewBox="0 0 340 120" fill="none" xmlns="http://www.w3.org/2000/svg">
<g clip-path="url(#clip0_114_2007)">
<path d="M76.0425 74.6528L69.7138 57.1743H35.1579L28.8291 74.6528H17.6664L46.7089 0H58.1628L87.1858 74.6528H76.0231H76.0425ZM38.3417 48.3962H66.5494L52.4552 9.39958L38.3417 48.3962Z" fill="#222221"/>
<path d="M142.029 19.0127V74.614C142.029 75.1189 142.029 75.6044 141.99 76.0899C141.718 80.5178 140.146 84.5962 137.68 87.9754C133.428 93.7627 126.478 97.5303 118.674 97.5303H111.297V88.6162H118.674C126.323 88.6162 132.671 82.8677 133.098 75.5462C133.118 75.2354 133.137 74.9247 133.137 74.5946L133.04 66.6127C128.983 72.8079 120.557 75.4491 113.471 75.4491C97.7466 75.4491 85.0114 62.6897 85.0114 46.9784C85.0114 31.2672 97.766 18.5078 113.471 18.5078C120.577 18.5078 129.099 21.1879 133.118 27.4607V19.0322H142.029V19.0127ZM133.021 46.959C133.021 36.1612 124.246 27.383 113.452 27.383C102.658 27.383 93.8833 36.1612 93.8833 46.959C93.8833 57.7569 102.658 66.535 113.452 66.535C124.246 66.535 133.021 57.7569 133.021 46.959Z" fill="#222221"/>
<path d="M180.254 18.1973C195.979 18.1973 208.733 30.9566 208.733 46.6873C208.733 62.418 195.979 75.1774 180.254 75.1774C173.051 75.1774 164.684 72.5556 160.607 66.205V97.4528H151.697V18.9741H160.607V27.1696C164.645 20.8773 173.129 18.1973 180.254 18.1973ZM199.823 46.6679C199.823 35.87 191.048 27.0919 180.254 27.0919C169.46 27.0919 160.685 35.87 160.685 46.6679C160.685 57.4658 169.46 66.2439 180.254 66.2439C191.048 66.2439 199.823 57.4658 199.823 46.6679Z" fill="#222221"/>
<path d="M34.5561 117.864H29.7027L28.8874 119.903H26.4413L30.984 109.435H33.4301L37.8952 119.903H35.3715L34.5561 117.864ZM33.799 115.96L32.1488 111.882L30.4793 115.96H33.7796H33.799Z" fill="#222221"/>
<path d="M42.632 109.435V118.796H47.233V119.903H41.4478V109.435H42.6514H42.632Z" fill="#222221"/>
<path d="M52.3582 109.435V118.796H56.9591V119.903H51.174V109.435H52.3776H52.3582Z" fill="#222221"/>
<path d="M62.1037 109.435V119.903H60.9001V109.435H62.1037Z" fill="#222221"/>
<path d="M73.8682 117.223H68.1607L66.9959 119.903H65.734L70.4321 109.435H71.6745L76.3532 119.903H75.0525L73.8682 117.223ZM73.4023 116.116L71.0145 110.736L68.6654 116.116H73.4023Z" fill="#222221"/>
<path d="M81.2455 109.435L87.5355 117.941V109.435H88.7197V119.903H87.4966L81.2067 111.397V119.903H80.0031V109.435H81.2455Z" fill="#222221"/>
<path d="M98.368 110.484C95.9995 110.484 94.097 112.329 94.097 114.64C94.097 116.951 95.9995 118.815 98.368 118.815C99.5133 118.815 100.639 118.33 101.455 117.553L102.192 118.349C101.163 119.32 99.7463 119.942 98.3097 119.942C95.2812 119.942 92.8934 117.611 92.8934 114.64C92.8934 111.669 95.3201 109.377 98.3485 109.377C99.7851 109.377 101.183 109.96 102.173 110.911L101.455 111.785C100.639 110.969 99.5133 110.484 98.368 110.484Z" fill="#222221"/>
<path d="M113.452 109.435V110.542H107.55V114.057H112.831V115.145H107.55V118.796H113.646V119.903H106.347V109.435H113.452Z" fill="#222221"/>
<path d="M130.788 114.62H132.846V118.64C131.74 119.456 130.051 120 128.595 120C125.43 120 123.023 117.689 123.023 114.659C123.023 111.63 125.469 109.338 128.731 109.338C130.284 109.338 131.876 109.94 132.943 110.872L131.604 112.562C130.827 111.843 129.74 111.396 128.731 111.396C126.867 111.396 125.43 112.814 125.43 114.659C125.43 116.504 126.886 117.941 128.731 117.941C129.352 117.941 130.109 117.708 130.788 117.378V114.62Z" fill="#222221"/>
<path d="M138.515 109.435V118.796H143.116V119.903H137.331V109.435H138.535H138.515Z" fill="#222221"/>
<path d="M157.036 114.659C157.036 117.611 154.609 119.941 151.561 119.941C148.513 119.941 146.067 117.611 146.067 114.659C146.067 111.707 148.494 109.396 151.561 109.396C154.628 109.396 157.036 111.707 157.036 114.659ZM147.29 114.659C147.29 116.97 149.231 118.854 151.561 118.854C153.891 118.854 155.813 116.989 155.813 114.659C155.813 112.329 153.891 110.503 151.561 110.503C149.231 110.503 147.29 112.348 147.29 114.659Z" fill="#222221"/>
<path d="M169.013 112.037C169.013 113.261 168.314 114.154 167.091 114.407C168.606 114.64 169.479 115.611 169.479 117.048C169.479 118.835 168.081 119.883 165.713 119.883H161.229V109.416H165.635C167.751 109.416 169.013 110.387 169.013 112.037ZM167.79 112.232C167.79 111.163 166.975 110.542 165.558 110.542H162.393V113.96H165.558C166.955 113.96 167.79 113.338 167.79 112.232ZM168.256 116.912C168.256 115.747 167.266 115.067 165.558 115.067H162.393V118.796H165.558C167.266 118.796 168.256 118.116 168.256 116.912Z" fill="#222221"/>
<path d="M180.525 117.223H174.818L173.653 119.903H172.391L177.089 109.435H178.332L183.01 119.903H181.71L180.525 117.223ZM180.06 116.116L177.672 110.736L175.323 116.116H180.06Z" fill="#222221"/>
<path d="M187.844 109.435V118.796H192.445V119.903H186.66V109.435H187.864H187.844Z" fill="#222221"/>
<path d="M210.675 113.067C210.675 115.514 209.141 116.912 206.481 116.912H204.404V119.903H202.036V109.435H206.481C209.141 109.435 210.675 110.756 210.675 113.067ZM208.442 113.144C208.442 111.979 207.704 111.397 206.384 111.397H204.423V114.951H206.384C207.704 114.951 208.442 114.348 208.442 113.164V113.144Z" fill="#222221"/>
<path d="M221.468 119.903L219.275 116.543C219.061 116.543 218.848 116.582 218.595 116.582H215.819V119.903H214.615V109.435H218.595C221.216 109.435 222.73 110.717 222.73 112.95C222.73 114.679 221.876 115.863 220.362 116.329L222.827 119.903H221.468ZM218.595 115.475C220.498 115.475 221.585 114.62 221.585 112.97C221.585 111.319 220.498 110.523 218.595 110.523H215.819V115.455H218.595V115.475Z" fill="#222221"/>
<path d="M237.407 114.659C237.407 117.611 234.98 119.941 231.932 119.941C228.884 119.941 226.438 117.611 226.438 114.659C226.438 111.707 228.865 109.396 231.932 109.396C235 109.396 237.407 111.707 237.407 114.659ZM227.661 114.659C227.661 116.97 229.603 118.854 231.932 118.854C234.262 118.854 236.184 116.989 236.184 114.659C236.184 112.329 234.262 110.503 231.932 110.503C229.603 110.503 227.661 112.348 227.661 114.659Z" fill="#222221"/>
<path d="M245.832 110.484C243.464 110.484 241.561 112.329 241.561 114.64C241.561 116.951 243.464 118.815 245.832 118.815C246.978 118.815 248.104 118.33 248.919 117.553L249.657 118.349C248.628 119.32 247.211 119.942 245.774 119.942C242.746 119.942 240.358 117.611 240.358 114.64C240.358 111.669 242.784 109.377 245.813 109.377C247.249 109.377 248.647 109.96 249.637 110.911L248.919 111.785C248.104 110.969 246.978 110.484 245.832 110.484Z" fill="#222221"/>
<path d="M257.985 118.854C259.965 118.854 261.169 117.65 261.169 115.591V109.435H262.373V115.591C262.373 118.33 260.722 119.942 257.985 119.942C255.248 119.942 253.578 118.33 253.578 115.591V109.435H254.782V115.591C254.782 117.65 256.005 118.854 258.005 118.854H257.985Z" fill="#222221"/>
<path d="M274.137 119.903L271.944 116.543C271.73 116.543 271.516 116.582 271.264 116.582H268.488V119.903H267.284V109.435H271.264C273.885 109.435 275.399 110.717 275.399 112.95C275.399 114.679 274.545 115.863 273.031 116.329L275.496 119.903H274.137ZM271.264 115.475C273.167 115.475 274.254 114.62 274.254 112.97C274.254 111.319 273.167 110.523 271.264 110.523H268.488V115.455H271.264V115.475Z" fill="#222221"/>
<path d="M287.202 109.435V110.542H281.3V114.057H286.581V115.145H281.3V118.796H287.396V119.903H280.097V109.435H287.202Z" fill="#222221"/>
<path d="M293.317 109.435L297.142 117.029L300.947 109.435H302.422V119.903H301.316V111.202L297.491 118.796H296.773L292.968 111.202V119.903H291.823V109.435H293.298H293.317Z" fill="#222221"/>
<path d="M314.711 109.435V110.542H308.81V114.057H314.09V115.145H308.81V118.796H314.905V119.903H307.606V109.435H314.711Z" fill="#222221"/>
<path d="M320.574 109.435L326.864 117.941V109.435H328.048V119.903H326.825L320.535 111.397V119.903H319.332V109.435H320.574Z" fill="#222221"/>
<path d="M339.832 109.435V110.542H336.415V119.903H335.212V110.542H331.795V109.435H339.832Z" fill="#222221"/>
<path d="M38.9823 92.7917H41.0401V96.8117C39.9335 97.6274 38.2446 98.1712 36.7886 98.1712C33.6242 98.1712 31.2169 95.8601 31.2169 92.8305C31.2169 89.8009 33.663 87.5093 36.9245 87.5093C38.4775 87.5093 40.0694 88.1113 41.1372 89.0435L39.7977 90.7331C39.0211 90.0145 37.934 89.5679 36.9245 89.5679C35.0608 89.5679 33.6242 90.9856 33.6242 92.8305C33.6242 94.6755 35.0802 96.1126 36.9245 96.1126C37.5457 96.1126 38.3028 95.8796 38.9823 95.5494V92.7917Z" fill="#222221"/>
<path d="M51.0184 98.0742L49.3488 95.0834H46.9416V98.0742H44.5731V87.6064H49.1159C51.8532 87.6064 53.4062 88.927 53.4062 91.2381C53.4062 92.85 52.7268 94.0152 51.4455 94.6173L53.678 98.0742H50.999H51.0184ZM46.961 93.1025H49.1353C50.436 93.1025 51.1931 92.5004 51.1931 91.3158C51.1931 90.1311 50.4554 89.5679 49.1353 89.5679H46.961V93.1219V93.1025Z" fill="#222221"/>
<path d="M67.4037 92.8305C67.4037 95.8601 64.977 98.1712 61.7738 98.1712C58.5706 98.1712 56.1439 95.8601 56.1439 92.8305C56.1439 89.8009 58.5706 87.5093 61.7738 87.5093C64.977 87.5093 67.4037 89.7815 67.4037 92.8305ZM58.59 92.8305C58.59 94.6755 60.0654 96.1126 61.8321 96.1126C63.5987 96.1126 64.9964 94.6755 64.9964 92.8305C64.9964 90.9856 63.5793 89.5873 61.8321 89.5873C60.0848 89.5873 58.59 90.9856 58.59 92.8305Z" fill="#222221"/>
<path d="M75.0138 96.1126C76.4116 96.1126 77.3434 95.1998 77.3434 93.685V87.5869H79.7118V93.685C79.7118 96.4621 77.9064 98.1711 75.0138 98.1711C72.1212 98.1711 70.2575 96.4427 70.2575 93.685V87.5869H72.6259V93.685C72.6259 95.1998 73.616 96.1126 75.0138 96.1126Z" fill="#222221"/>
<path d="M91.9423 91.2381C91.9423 93.6851 90.4086 95.0834 87.749 95.0834H85.6717V98.0742H83.3033V87.6064H87.749C90.4086 87.6064 91.9423 88.927 91.9423 91.2381ZM89.6903 91.3158C89.6903 90.1505 88.9332 89.5679 87.6325 89.5679H85.6717V93.1219H87.6325C88.9526 93.1219 89.6903 92.5199 89.6903 91.3352V91.3158Z" fill="#222221"/>
<path d="M102.911 87.5869V89.5484H97.3003V91.8206H102.348V93.7821H97.3003V96.0931H103.066V98.0546H94.9319V87.5869H102.911Z" fill="#222221"/>
<path d="M293.298 27.8684C294.864 28.5287 298.048 27.2211 302.849 23.9455C306.13 20.9935 302.481 16.4685 298.908 16.3714C298.119 16.3455 295.634 17.7633 291.454 20.6246C288.367 23.2852 290.93 26.878 293.298 27.8684Z" fill="#42519B"/>
<path d="M314.575 36.3358C315.753 37.1514 318.147 36.2193 321.758 33.5392C324.36 30.8592 321.195 25.0524 318.672 24.9747C318.309 24.9618 316.53 26.0882 313.333 28.3539C310.751 30.7621 312.595 34.9763 314.556 36.3358" fill="#42519B"/>
<path d="M303.684 61.1164C304.965 61.7508 308.039 60.4237 312.906 57.1352C316.594 54.0279 314.42 49.3475 311.838 49.0562C311.191 48.9785 308.525 50.435 303.839 53.4258C300.248 56.203 301.588 60.0677 303.684 61.097" fill="#42519B"/>
<path d="M229.02 28.0819C228.03 31.9272 227.428 34.7821 227.856 39.3459C228.341 42.0454 228.768 43.8515 230.554 46.2791C231.952 47.8327 233.854 49.9496 238.649 50.9594C239.931 51.1342 241.659 51.309 242.959 51.3673C247.541 51.1731 257.073 50.7846 280.485 37.9865C284.271 35.3064 282.097 30.9562 278.777 30.16C277.599 29.8751 275.451 30.5872 272.332 32.2962C265.401 36.1027 252.181 42.5115 241.523 42.6862C240.416 42.6086 238.941 42.4338 237.834 42.2202C235.912 41.6181 233.272 40.7636 231.389 37.6757C230.476 35.7919 229.913 34.4907 229.875 31.3446C229.991 29.0336 230.166 25.868 232.709 20.3525C231.175 22.819 229.952 25.4213 229.001 28.0625" fill="#42519B"/>
<path d="M226.516 45.6769C226.652 47.6384 226.885 50.2602 227.137 52.2023C227.7 54.9988 228.244 57.64 230.36 60.7279C232.321 63.2138 233.777 64.8257 237.523 66.5347C242.862 68.4767 246.182 68.768 253.617 67.9718C255.558 67.6417 258.14 67.1173 260.062 66.6706C272.37 63.1555 285.999 56.8632 300.559 47.9686C304.849 44.6671 301.529 39.54 298.268 39.2487C297.375 39.171 295.421 40.0385 292.405 41.8511C282.543 47.7744 267.944 55.2125 256.607 58.2809C254.782 58.7276 252.336 59.2519 250.491 59.5821C244.027 60.3201 240.804 60.223 235.601 58.2421C232.981 56.8438 231.253 55.7757 229.292 52.8043C226.885 48.3764 226.283 44.8613 226.788 38.3359C226.477 42.7833 226.419 43.5989 226.516 45.6964" fill="#42519B"/>
<path d="M229.894 62.6898C231.971 67.6226 232.049 67.8168 233.602 70.5163L234.145 71.4291C234.631 72.1282 235.233 73.0604 235.757 73.7207C238.688 76.8474 239.562 77.4689 243.58 79.3721C245.017 79.8576 246.978 80.4402 248.473 80.7898C258.063 82.1298 270.235 81.6055 294.055 68.7102C298.346 65.8553 296.288 61.7382 293.512 60.9808C292.347 60.67 289.946 61.4469 286.309 63.3112C276.661 68.2441 258.412 76.1288 244.454 73.5653C243.037 73.2352 241.173 72.6914 239.795 72.2059C235.99 70.3803 235.174 69.7783 232.476 66.8264C230.806 64.4571 230.418 63.7968 229.214 60.6895L229.913 62.6898" fill="#42519B"/>
<path d="M12.7546 87.548L0.291199 119.747H12.9099L24.4609 87.4897L12.7546 87.548Z" fill="#42519B"/>
</g>
<defs>
<clipPath id="clip0_114_2007">
<rect width="339.832" height="120" fill="white"/>
</clipPath>
</defs>
</svg>
