<svg width="36" height="36" viewBox="0 0 36 36" fill="none" xmlns="http://www.w3.org/2000/svg">
<g id="icn/ linkedin">
<path id="Vector" d="M33.315 4.84582e-05H2.685C1.98709 -0.00415977 1.31527 0.26587 0.813424 0.752312C0.311576 1.23875 0.0195921 1.90293 0 2.60262V33.3972C0.0157522 34.0982 0.306534 34.7647 0.809226 35.2519C1.31192 35.7392 1.98595 36.0079 2.685 35.9998H33.315C34.0141 36.0079 34.6881 35.7392 35.1908 35.2519C35.6935 34.7647 35.9842 34.0982 36 33.3972V2.60262C35.9804 1.90293 35.6884 1.23875 35.1866 0.752312C34.6847 0.26587 34.0129 -0.00415977 33.315 4.84582e-05ZM10.665 30.7044H5.385V13.5395H10.665V30.7044ZM8.085 11.1475C7.27433 11.1477 6.49572 10.83 5.91553 10.2622C5.33534 9.69433 4.99958 8.92144 4.98 8.10865C4.96532 7.69574 5.03559 7.28422 5.18644 6.89975C5.33728 6.51527 5.56547 6.16607 5.85677 5.87392C6.14808 5.58176 6.49626 5.35291 6.87962 5.20162C7.26298 5.05034 7.67329 4.97986 8.085 4.99458C8.86926 5.04935 9.60361 5.40044 10.1399 5.977C10.6761 6.55357 10.9743 7.31267 10.9743 8.10113C10.9743 8.88958 10.6761 9.64869 10.1399 10.2252C9.60361 10.8018 8.86926 11.1529 8.085 11.2077V11.1475ZM30.72 30.5991H25.5V22.2047C25.5 20.2038 25.5 17.6013 22.71 17.6013C19.92 17.6013 19.5 19.7977 19.5 22.0091V30.5088H14.16V13.5395H19.14V15.796H19.245C19.7554 14.907 20.4997 14.1758 21.3965 13.6823C22.2933 13.1888 23.3081 12.952 24.33 12.9979C29.715 12.9979 30.72 16.6084 30.72 21.1967V30.5991Z" fill="#42519B"/>
</g>
</svg>
