<svg width="32" height="32" viewBox="0 0 32 32" fill="none" xmlns="http://www.w3.org/2000/svg">
<g id="message-square-02">
<path id="Icon" d="M4 10.4C4 8.15979 4 7.03968 4.43597 6.18404C4.81947 5.43139 5.43139 4.81947 6.18404 4.43597C7.03969 4 8.15979 4 10.4 4H21.6C23.8402 4 24.9603 4 25.816 4.43597C26.5686 4.81947 27.1805 5.43139 27.564 6.18404C28 7.03968 28 8.15979 28 10.4V17.6C28 19.8402 28 20.9603 27.564 21.816C27.1805 22.5686 26.5686 23.1805 25.816 23.564C24.9603 24 23.8402 24 21.6 24H18.245C17.4129 24 16.9969 24 16.599 24.0817C16.2459 24.1541 15.9043 24.274 15.5833 24.4379C15.2216 24.6228 14.8967 24.8826 14.247 25.4024L11.0663 27.9469C10.5116 28.3908 10.2342 28.6127 10.0007 28.6129C9.79769 28.6131 9.60563 28.5208 9.47897 28.3622C9.33333 28.1797 9.33333 27.8245 9.33333 27.114V24C8.09337 24 7.47339 24 6.96472 23.8637C5.58436 23.4938 4.50617 22.4156 4.1363 21.0353C4 20.5266 4 19.9066 4 18.6667V10.4Z" stroke="#F1F2F9" stroke-width="2" stroke-linecap="round" stroke-linejoin="round"/>
</g>
</svg>
