<svg width="32" height="32" viewBox="0 0 32 32" fill="none" xmlns="http://www.w3.org/2000/svg">
<g id="plane">
<path id="Icon" d="M23.6597 3.74999C24.9461 2.42135 27.0714 2.40417 28.3791 3.71183C29.6509 4.98366 29.6746 7.03829 28.4324 8.33909L24.7275 12.2188C24.4371 12.5229 24.2919 12.6749 24.2025 12.853C24.1233 13.0106 24.0761 13.1824 24.0638 13.3584C24.0499 13.5572 24.0971 13.7621 24.1917 14.1718L26.4955 24.1552C26.5926 24.5758 26.6411 24.786 26.6255 24.9894C26.6116 25.1695 26.5613 25.3448 26.4776 25.5048C26.3831 25.6856 26.2305 25.8382 25.9253 26.1434L25.431 26.6378C24.6228 27.446 24.2187 27.8501 23.8051 27.9232C23.444 27.9871 23.0724 27.8994 22.778 27.6807C22.4408 27.4304 22.2601 26.8882 21.8986 25.8039L19.2189 17.7649L14.7585 22.2253C14.4923 22.4915 14.3591 22.6247 14.2701 22.7814C14.1912 22.9203 14.1379 23.0722 14.1128 23.23C14.0844 23.408 14.1051 23.5951 14.1467 23.9694L14.3917 26.1739C14.4333 26.5481 14.454 26.7352 14.4256 26.9133C14.4005 27.071 14.3472 27.2229 14.2683 27.3618C14.1793 27.5186 14.0461 27.6517 13.7799 27.918L13.5165 28.1813C12.8858 28.8121 12.5704 29.1274 12.22 29.2188C11.9126 29.2989 11.5867 29.2666 11.301 29.1278C10.9752 28.9695 10.7278 28.5984 10.233 27.8562L8.14191 24.7195C8.05351 24.5869 8.00931 24.5206 7.958 24.4605C7.91242 24.4071 7.86268 24.3573 7.80927 24.3118C7.74914 24.2604 7.68283 24.2163 7.55023 24.1278L4.41359 22.0368C3.67139 21.542 3.30029 21.2946 3.142 20.9688C3.00316 20.6831 2.97089 20.3572 3.051 20.0498C3.14234 19.6993 3.45771 19.384 4.08845 18.7532L4.35179 18.4899C4.61804 18.2236 4.75117 18.0905 4.90794 18.0015C5.04682 17.9226 5.19875 17.8693 5.35648 17.8441C5.53453 17.8157 5.72165 17.8365 6.09588 17.8781L8.30039 18.123C8.67462 18.1646 8.86174 18.1854 9.03978 18.157C9.19752 18.1318 9.34945 18.0786 9.48833 17.9997C9.6451 17.9106 9.77823 17.7775 10.0445 17.5112L14.5049 13.0508L6.46587 10.3711C5.38156 10.0097 4.83941 9.82898 4.58902 9.49177C4.37037 9.19732 4.28267 8.82581 4.34655 8.46466C4.4197 8.05107 4.8238 7.64697 5.63199 6.83878L6.12635 6.34442C6.43154 6.03923 6.58414 5.88663 6.76493 5.79211C6.92494 5.70845 7.10028 5.65817 7.28031 5.6443C7.48372 5.62864 7.69399 5.67716 8.11455 5.77421L18.0601 8.06933C18.4733 8.1647 18.68 8.21239 18.8795 8.1982C19.0721 8.1845 19.2594 8.12913 19.4285 8.03591C19.6037 7.93936 19.7512 7.787 20.0462 7.48228L23.6597 3.74999Z" stroke="#42519B" stroke-width="2" stroke-linecap="round" stroke-linejoin="round"/>
</g>
</svg>
